<?xml version="1.0" encoding="UTF-8" standalone="no"?>
<svg
   xmlns:dc="http://purl.org/dc/elements/1.1/"
   xmlns:cc="http://creativecommons.org/ns#"
   xmlns:rdf="http://www.w3.org/1999/02/22-rdf-syntax-ns#"
   xmlns:svg="http://www.w3.org/2000/svg"
   xmlns="http://www.w3.org/2000/svg"
   xmlns:sodipodi="http://sodipodi.sourceforge.net/DTD/sodipodi-0.dtd"
   xmlns:inkscape="http://www.inkscape.org/namespaces/inkscape"
   inkscape:version="1.0 (4035a4fb49, 2020-05-01)"
   sodipodi:docname="icon.svg"
   id="svg92"
   version="1.1"
   viewBox="0 0 37.296002 37.296003"
   height="37.296001"
   width="37.296001">
  <metadata
     id="metadata96">
    <rdf:RDF>
      <cc:Work
         rdf:about="">
        <dc:format>image/svg+xml</dc:format>
        <dc:type
           rdf:resource="http://purl.org/dc/dcmitype/StillImage" />
        <dc:title></dc:title>
      </cc:Work>
    </rdf:RDF>
  </metadata>
  <sodipodi:namedview
     fit-margin-bottom="0"
     fit-margin-right="0"
     fit-margin-left="0"
     fit-margin-top="0"
     inkscape:lockguides="true"
     inkscape:current-layer="svg92"
     inkscape:window-maximized="1"
     inkscape:window-y="-9"
     inkscape:window-x="-9"
     inkscape:cy="43.965399"
     inkscape:cx="92.334699"
     inkscape:zoom="9.4453959"
     showgrid="false"
     id="namedview94"
     inkscape:window-height="1013"
     inkscape:window-width="1920"
     inkscape:pageshadow="2"
     inkscape:pageopacity="0"
     guidetolerance="10"
     gridtolerance="10"
     objecttolerance="10"
     borderopacity="1"
     bordercolor="#666666"
     pagecolor="#ffffff" />
  <defs
     id="defs4">
    <style
       id="style2">.a{fill:#f26526;}</style>
  </defs>
  <g
     id="g90"
     transform="translate(-1390.3955,-2022.3773)">
    <g
       transform="translate(1390.3945,2022.3773)"
       id="g52">
      <path
         class="a"
         d="m 1441.012,2117.367 a 0.439,0.439 0 0 0 0,-0.877 0.439,0.439 0 1 0 0,0.877 z"
         transform="translate(-1426.892,-2093.624)"
         id="path6" />
      <rect
         y="0"
         x="0"
         class="a"
         width="0.54500002"
         height="3.72"
         transform="translate(9.762,7.599)"
         id="rect8" />
      <path
         class="a"
         d="m 1442.031,2111.285 a 0.389,0.389 0 1 0 -0.395,-0.384 0.394,0.394 0 0 0 0.395,0.384 z"
         transform="translate(-1427.672,-2089.248)"
         id="path10" />
      <path
         class="a"
         d="m 1432.9,2116.412 a 0.454,0.454 0 1 0 -0.456,0.454 0.454,0.454 0 0 0 0.456,-0.454 z"
         transform="translate(-1420.62,-2093.233)"
         id="path12" />
      <path
         class="a"
         d="m 1428.462,2111.7 a 0.41,0.41 0 0 0 -0.408,0.408 0.406,0.406 0 0 0 0.811,0 0.409,0.409 0 0 0 -0.403,-0.408 z"
         transform="translate(-1417.74,-2090.119)"
         id="path14" />
      <path
         class="a"
         d="m 1437.087,2114.05 a 0.442,0.442 0 1 0 -0.45,-0.443 0.446,0.446 0 0 0 0.45,0.443 z"
         transform="translate(-1424.017,-2091.193)"
         id="path16" />
      <path
         class="a"
         d="m 1498.067,2089.612 a 1.964,1.964 0 0 1 0.333,0.745 c 0,0 0.531,-0.516 -0.333,-0.745 z"
         transform="translate(-1468.94,-2073.968)"
         id="path18" />
      <path
         class="a"
         d="m 1424.194,2080.78 a 0.224,0.224 0 0 0 0.148,-0.051 0.168,0.168 0 0 0 0.059,-0.124 0.179,0.179 0 0 0 -0.059,-0.134 0.228,0.228 0 0 0 -0.148,-0.051 0.218,0.218 0 0 0 -0.144,0.051 0.176,0.176 0 0 0 -0.059,0.134 0.16,0.16 0 0 0 0.059,0.124 0.216,0.216 0 0 0 0.144,0.051 z"
         transform="translate(-1414.769,-2067.246)"
         id="path20" />
      <path
         class="a"
         d="m 1424.32,2078.773 a 0.129,0.129 0 0 0 0.11,-0.04 0.1,0.1 0 0 0 0.051,-0.1 0.118,0.118 0 0 0 -0.051,-0.106 0.156,0.156 0 0 0 -0.11,-0.035 0.184,0.184 0 0 0 -0.11,0.035 0.126,0.126 0 0 0 -0.047,0.106 0.109,0.109 0 0 0 0.047,0.1 0.148,0.148 0 0 0 0.11,0.04 z"
         transform="translate(-1414.894,-2065.835)"
         id="path22" />
      <path
         class="a"
         d="m 1429.419,2078.773 a 0.149,0.149 0 0 0 0.11,-0.04 0.117,0.117 0 0 0 0.049,-0.1 0.143,0.143 0 0 0 -0.049,-0.106 0.182,0.182 0 0 0 -0.11,-0.035 0.2,0.2 0 0 0 -0.119,0.035 0.142,0.142 0 0 0 -0.049,0.106 0.118,0.118 0 0 0 0.051,0.1 0.155,0.155 0 0 0 0.117,0.04 z"
         transform="translate(-1418.615,-2065.835)"
         id="path24" />
      <path
         class="a"
         d="m 1429.323,2080.78 a 0.223,0.223 0 0 0 0.143,-0.051 0.187,0.187 0 0 0 0.053,-0.124 0.185,0.185 0 0 0 -0.058,-0.134 0.2,0.2 0 0 0 -0.139,-0.051 0.212,0.212 0 0 0 -0.148,0.051 0.179,0.179 0 0 0 -0.055,0.134 0.169,0.169 0 0 0 0.053,0.124 0.225,0.225 0 0 0 0.151,0.051 z"
         transform="translate(-1418.52,-2067.246)"
         id="path26" />
      <path
         class="a"
         d="m 1456.71,2079.326 a 0.444,0.444 0 0 0 0.091,-0.3 0.411,0.411 0 0 0 -0.093,-0.293 0.3,0.3 0 0 0 -0.247,-0.111 0.291,0.291 0 0 0 -0.256,0.12 0.477,0.477 0 0 0 -0.084,0.286 0.437,0.437 0 0 0 0.093,0.3 0.307,0.307 0 0 0 0.247,0.11 0.3,0.3 0 0 0 0.249,-0.112 z"
         transform="translate(-1438.265,-2065.931)"
         id="path28" />
      <path
         class="a"
         d="m 1433.29,2061.459 0.553,-0.175 v -1.612 h -0.553 z"
         transform="translate(-1421.569,-2052.073)"
         id="path30" />
      <rect
         y="0"
         x="0"
         class="a"
         width="0.55400002"
         height="2.7869999"
         transform="translate(10.786,7.599)"
         id="rect32" />
      <rect
         y="0"
         x="0"
         class="a"
         width="0.54699999"
         height="3.72"
         transform="translate(18.965,7.599)"
         id="rect34" />
      <path
         class="a"
         d="m 1445.2,2056.324 h -0.582 v 1.469 h 1.12 l -0.644,2.218 h 0.615 l 0.62,-2.309 v -0.479 h -1.129 z"
         transform="translate(-1429.851,-2049.625)"
         id="path36" />
      <rect
         y="0"
         x="0"
         class="a"
         width="1.735"
         height="0.39300001"
         transform="translate(16.777,8.786)"
         id="rect38" />
      <path
         class="a"
         d="m 1479.946,2060.818 a 1.921,1.921 0 0 0 0.079,-0.679 v -0.465 h -0.573 v 0.62 a 3.521,3.521 0 0 1 -0.016,0.4 c -0.037,0.194 -0.1,0.236 -0.11,0.236 -0.01,0 -0.245,-0.459 -0.412,-0.737 -0.117,-0.2 -0.186,-0.317 -0.3,-0.522 h -0.692 c 0.013,0.035 0.15,0.227 0.24,0.384 0.106,0.148 0.24,0.4 0.274,0.456 l 0.059,0.1 a 1.434,1.434 0 0 0 -0.369,0.536 2.505,2.505 0 0 0 -0.119,0.922 v 0.39 h 0.578 v -0.693 a 1.959,1.959 0 0 1 0.042,-0.533 0.609,0.609 0 0 1 0.1,-0.22 l 0.047,0.073 c 0.042,0.073 0.168,0.3 0.3,0.541 0.137,0.324 0.241,0.507 0.382,0.833 h 0.639 c -0.075,-0.172 -0.128,-0.28 -0.214,-0.456 -0.093,-0.231 -0.258,-0.532 -0.274,-0.578 l -0.039,-0.073 a 1.188,1.188 0 0 0 0.378,-0.535 z"
         transform="translate(-1454.206,-2052.074)"
         id="path40" />
      <path
         class="a"
         d="m 1487.825,2060.447 a 1.316,1.316 0 0 1 0.051,0.538 v 1.475 h 0.567 v -1.585 a 1.655,1.655 0 0 0 -0.139,-0.8 0.816,0.816 0 0 0 -0.8,-0.406 h -0.586 v 0.569 h 0.516 a 0.378,0.378 0 0 1 0.391,0.209 z"
         transform="translate(-1460.784,-2052.074)"
         id="path42" />
      <path
         class="a"
         d="m 1469.441,2060.487 c 0,0.812 -0.059,1.072 -0.2,1.281 a 0.649,0.649 0 0 1 -0.573,0.342 c -0.483,0.043 -0.647,-0.527 -0.647,-0.527 a 0.911,0.911 0 0 0 0.725,-0.344 1.5,1.5 0 0 0 0.221,-0.82 v -0.745 h -0.547 v 0.814 a 0.9,0.9 0 0 1 -0.192,0.609 0.473,0.473 0 0 1 -0.267,0.1 v -1.526 h -0.556 v 1.316 c 0,1.145 0.487,1.632 1.261,1.623 a 1.164,1.164 0 0 0 0.895,-0.386 c 0.36,-0.459 0.413,-0.778 0.413,-1.773 v -0.781 h -0.534 z"
         transform="translate(-1446.518,-2052.074)"
         id="path44" />
      <path
         class="a"
         d="m 1408.317,2031.391 a 18.648,18.648 0 1 0 18.649,18.65 18.651,18.651 0 0 0 -18.649,-18.65 z m -11.081,18.685 a 3.435,3.435 0 0 1 -0.1,-0.725 l -0.156,-1.116 a 2.6,2.6 0 0 0 1.305,-0.09 c 0.9,-0.229 0.706,-0.112 1.6,0.031 0.894,0.143 0.69,-0.465 1.343,-0.465 0.653,0 0.648,0.419 1.616,-0.051 0.924,-0.454 0.8,0.47 0.789,0.543 l -2.551,1.561 0.75,0.113 -0.121,0.611 c 0.176,0.042 0.4,0.095 0.666,0.17 0.313,0.088 0.679,0.192 1.068,0.322 a 10.087,10.087 0 0 1 1.2,0.472 c 0.1,0.042 0.194,0.1 0.271,0.128 a 1.528,1.528 0 0 0 0.269,0.049 0.781,0.781 0 0 0 0.269,-0.01 c 0.1,-0.013 0.2,-0.026 0.3,-0.042 0.395,-0.068 0.772,-0.115 1.087,-0.156 0.417,-0.062 0.743,-0.1 0.924,-0.119 l -0.02,-0.831 0.765,-0.1 c 0,0 -3.017,-1.927 -3.012,-2.042 0.125,-1.482 -0.108,-1.943 -0.677,-2.161 -1.463,-0.554 -1.438,0.624 -2.393,0.377 -1,-0.262 -1.526,-0.524 -2.256,-0.249 a 2.69,2.69 0 0 1 -1.936,0.018 2.287,2.287 0 0 0 -1.275,0.055 v 0.58 l 0.018,0.058 a 5.138,5.138 0 0 1 2.157,0.033 c 1.067,0.2 1.2,-0.666 2.258,-0.293 1.647,0.588 1.8,0.084 2.278,-0.179 0.478,-0.263 1.178,-0.355 1.29,0.284 a 9.119,9.119 0 0 1 0.121,1.321 l -0.519,-0.337 a 0.3,0.3 0 0 0 -0.271,-0.024 0.9,0.9 0 0 0 -0.626,-0.589 h -0.01 a 1.191,1.191 0 0 0 -0.988,0.128 1.412,1.412 0 0 1 -0.582,0.163 c -0.7,0.049 -0.745,-0.313 -1.325,0 -0.58,0.313 -0.816,0.408 -1.149,0.28 a 1.812,1.812 0 0 0 -1.422,0.046 1.624,1.624 0 0 1 -1.213,0 l -0.018,-0.882 -0.134,-0.533 c 0,0 0.046,-0.018 0.13,-0.046 l -0.01,-0.58 h 16.6 v 0.551 c 0,0 -0.785,0.284 -0.485,0.818 0.3,0.534 0.578,-0.569 0.939,-0.6 0.361,-0.031 -0.276,1.008 -0.223,1.354 0.053,0.346 0.957,0.037 0.591,0.39 -0.553,0.523 -0.221,1.839 -0.221,1.839 -1.082,-0.01 -3.195,0.847 -4.437,0.741 a 2.424,2.424 0 0 0 -1.1,0.364 l -0.494,0.148 -0.115,0.033 -0.245,0.075 v -0.01 c -0.225,0.064 -0.542,0.152 -0.867,0.221 -0.325,0.069 -0.688,0.145 -1.087,0.223 -0.1,0.015 -0.2,0.037 -0.306,0.057 a 1.467,1.467 0 0 1 -0.357,0.013 1.375,1.375 0 0 1 -0.355,-0.07 c -0.123,-0.046 -0.229,-0.1 -0.318,-0.144 -0.377,-0.182 -0.783,-0.333 -1.148,-0.476 -0.365,-0.143 -0.732,-0.271 -1.037,-0.377 -0.6,-0.221 -1.266,-0.41 -1.266,-0.41 a 12.621,12.621 0 0 0 -3.782,-0.469 z m 0.079,-5.751 v -0.273 a 0.6,0.6 0 0 0 0.437,-0.247 h 0.265 v 1.35 h -0.353 v -0.955 a 1.024,1.024 0 0 1 -0.349,0.125 z m 1.29,-0.174 a 0.376,0.376 0 0 1 0.121,-0.254 0.693,0.693 0 0 1 0.737,0 0.339,0.339 0 0 1 0.127,0.254 0.3,0.3 0 0 1 -0.156,0.271 0.37,0.37 0 0 1 0.219,0.34 0.366,0.366 0 0 1 -0.155,0.3 0.594,0.594 0 0 1 -0.4,0.126 0.631,0.631 0 0 1 -0.4,-0.126 0.363,0.363 0 0 1 -0.152,-0.3 0.347,0.347 0 0 1 0.064,-0.205 0.633,0.633 0 0 1 0.159,-0.135 0.3,0.3 0 0 1 -0.169,-0.271 z m 1.376,0 a 0.355,0.355 0 0 1 0.119,-0.254 0.52,0.52 0 0 1 0.373,-0.106 0.512,0.512 0 0 1 0.36,0.106 0.333,0.333 0 0 1 0.128,0.254 0.306,0.306 0 0 1 -0.152,0.271 0.375,0.375 0 0 1 0.216,0.34 0.36,0.36 0 0 1 -0.148,0.3 0.617,0.617 0 0 1 -0.4,0.126 0.651,0.651 0 0 1 -0.41,-0.126 0.356,0.356 0 0 1 -0.15,-0.3 0.368,0.368 0 0 1 0.066,-0.205 0.569,0.569 0 0 1 0.152,-0.135 0.3,0.3 0 0 1 -0.154,-0.271 z m 1.932,-0.04 a 0.127,0.127 0 0 0 -0.1,-0.044 0.155,0.155 0 0 0 -0.15,0.137 l -0.348,-0.053 a 0.476,0.476 0 0 1 0.522,-0.36 0.513,0.513 0 0 1 0.349,0.113 0.391,0.391 0 0 1 0.132,0.3 0.41,0.41 0 0 1 -0.079,0.234 1.314,1.314 0 0 1 -0.289,0.261 0.787,0.787 0 0 0 -0.185,0.172 h 0.58 v 0.28 h -1.054 a 0.576,0.576 0 0 1 0.114,-0.324 0.947,0.947 0 0 1 0.265,-0.282 1.153,1.153 0 0 0 0.219,-0.2 0.251,0.251 0 0 0 0.062,-0.15 0.109,0.109 0 0 0 -0.039,-0.084 z m 2.94,0.077 a 0.67,0.67 0 0 0 -0.386,-0.091 c -0.128,0 -0.26,0.013 -0.412,0.029 l -0.026,-0.278 a 2.819,2.819 0 0 1 0.5,-0.033 1.186,1.186 0 0 1 0.49,0.082 0.529,0.529 0 0 1 0.243,0.219 0.707,0.707 0 0 1 0.075,0.359 v 0.679 h -0.368 v -0.631 a 0.407,0.407 0 0 0 -0.117,-0.335 z m -0.441,0.278 v 0.688 h -0.373 v -0.688 z m 1.193,-0.34 v -0.3 h 1.347 v 0.3 h -0.225 v 1.028 h -0.36 v -1.028 z m 1.542,0.373 a 0.666,0.666 0 0 1 0.2,-0.5 0.711,0.711 0 0 1 0.523,-0.2 0.757,0.757 0 0 1 0.377,0.09 0.65,0.65 0 0 1 0.247,0.24 0.692,0.692 0 0 1 0.1,0.359 0.677,0.677 0 0 1 -0.2,0.5 0.723,0.723 0 0 1 -0.516,0.2 0.736,0.736 0 0 1 -0.518,-0.19 0.64,0.64 0 0 1 -0.214,-0.498 z m 1.744,0.655 v -1.332 h 0.384 v 1.332 z m 1.023,-1 a 0.426,0.426 0 0 0 -0.311,-0.04 l -0.024,-0.28 a 2.091,2.091 0 0 1 0.26,-0.015 0.525,0.525 0 0 1 0.389,0.121 0.508,0.508 0 0 1 0.123,0.39 v 0.827 h -0.754 v -0.3 h 0.39 v -0.5 a 0.237,0.237 0 0 0 -0.074,-0.206 z m 3.4,0.7 v 0.3 h -1.389 v -0.3 h 0.767 v -0.351 a 0.387,0.387 0 0 0 -0.1,-0.306 0.485,0.485 0 0 0 -0.335,-0.084 c -0.1,0 -0.205,0.01 -0.32,0.017 l -0.024,-0.269 a 1.558,1.558 0 0 1 0.408,-0.042 0.868,0.868 0 0 1 0.56,0.144 0.586,0.586 0 0 1 0.179,0.479 v 0.412 z m 1.411,0.9 c -0.167,0.229 -0.9,0.333 -0.9,0.333 l -0.037,-0.333 z m -0.609,-1.4 0.144,-0.53 h 0.406 l -0.3,0.53 z m 1.78,-0.13 a 0.158,0.158 0 0 0 -0.159,-0.106 0.235,0.235 0 0 0 -0.2,0.119 1.391,1.391 0 0 0 -0.148,0.469 l -0.086,0.45 h -0.384 l 0.06,-0.289 c 0.04,-0.167 0.077,-0.3 0.106,-0.38 l -0.234,-0.664 h 0.335 l 0.081,0.292 a 0.593,0.593 0 0 1 0.505,-0.3 0.488,0.488 0 0 1 0.39,0.181 1.017,1.017 0 0 1 0.143,0.606 v 0.552 h -0.713 v -0.3 h 0.344 v -0.267 a 0.971,0.971 0 0 0 -0.036,-0.366 z m -0.662,1.989 c 0.446,0.069 0.344,-0.212 0.606,-0.24 0.262,-0.028 0.309,0.593 0.8,0.586 0.491,-0.01 0,-0.361 -0.251,-0.452 a 0.743,0.743 0 0 1 -0.392,-0.382 h 1.25 a 2.019,2.019 0 0 1 0.463,0.833 c -0.135,-0.105 -0.3,-0.163 -0.346,-0.044 -0.1,0.238 0.183,0.52 -0.216,0.522 -0.399,0 -0.434,0.5 -0.653,0.121 -0.2,-0.322 -0.37,-0.58 -0.926,-0.176 0,0 0.686,-0.166 0.673,0.152 -0.013,0.318 0.242,0.24 0.227,0.406 -0.015,0.166 -0.825,0.951 -0.931,1.2 -0.106,0.249 -0.375,0.23 -0.474,0.432 -0.099,0.202 -0.1,0.214 0.17,0.062 0.27,-0.152 0.322,-0.148 0.5,-0.415 a 2.046,2.046 0 0 1 0.739,-0.831 c 0.331,-0.142 0.4,-0.693 0.765,-0.646 0.365,0.047 -0.134,0.445 0,0.631 0.134,0.186 0.143,-0.207 0.344,-0.291 0.201,-0.084 0.211,-0.059 0.181,0.291 -0.03,0.35 -0.181,1.094 0.073,0.968 a 1.206,1.206 0 0 0 -0.016,-1.466 c 0,0 -0.452,-0.573 0.037,-0.694 l 0.662,-1.054 h 1.158 c -0.3,0.024 -1.526,0.56 -1.23,0.9 0.296,0.34 0.381,-0.368 0.917,0.185 0.536,0.553 0.1,0.364 0.287,0.633 a 2.909,2.909 0 0 1 0.148,1.146 c 0,0 -0.035,-0.161 -0.487,-0.075 -0.452,0.086 -0.613,-0.051 -0.532,-0.492 0.081,-0.441 -0.026,-0.5 -0.309,-0.514 -0.283,-0.014 -0.5,0.22 -0.15,0.541 0.35,0.321 0.62,1.056 0.2,1.019 -0.42,-0.037 -0.32,0.1 -0.355,0.461 -0.035,0.361 -0.134,0.113 -0.406,0.175 -0.272,0.062 -0.243,0.529 -0.514,0.412 -0.271,-0.117 0.22,-0.313 -0.075,-0.395 -0.295,-0.082 -0.133,-0.227 -0.075,-0.536 0.058,-0.309 0.768,-0.463 0.406,-0.671 -0.362,-0.208 -0.631,0.353 -0.684,0.748 -0.053,0.395 -0.516,0.8 -0.84,0.728 -0.324,-0.072 -0.222,-0.01 -0.549,0.106 a 0.337,0.337 0 0 1 -0.443,-0.172 c -0.405,0.309 -0.465,0.205 -0.465,0.205 -0.251,-0.251 0.128,-0.278 0.143,-0.516 0.015,-0.238 -0.165,-0.146 -0.069,-0.359 0.096,-0.213 0.236,0.01 0,-0.346 -0.236,-0.355 0.318,-0.591 0.629,-0.858 0.311,-0.267 0.551,-0.13 0.781,-0.282 0.23,-0.152 0.01,-0.443 -0.326,-0.406 -0.335,0.037 -0.34,0.487 -0.649,0.468 -0.309,-0.019 -0.082,-0.108 -0.434,-0.04 -0.352,0.068 -0.3,-0.139 -0.2,-0.315 0.1,-0.176 -0.177,-0.139 -0.051,-0.315 0.126,-0.176 0.344,-0.146 0.172,-0.287 -0.172,-0.141 -0.326,-0.337 0.148,-0.354 0.474,-0.017 0.124,-0.383 0.574,-0.31 z m 2.027,-2.011 a 0.538,0.538 0 0 0 -0.351,-0.088 c -0.086,0 -0.19,0 -0.324,0.015 l -0.028,-0.273 a 1.839,1.839 0 0 1 0.436,-0.038 0.9,0.9 0 0 1 0.558,0.144 0.577,0.577 0 0 1 0.19,0.479 v 0.717 h -0.366 v -0.655 a 0.349,0.349 0 0 0 -0.111,-0.303 z m 0.785,-0.075 -0.037,-0.267 a 4.61,4.61 0 0 1 0.708,-0.042 1.773,1.773 0 0 1 0.487,0.049 0.442,0.442 0 0 1 0.269,0.187 0.663,0.663 0 0 1 0.095,0.386 v 0.717 h -0.371 v -0.655 a 0.432,0.432 0 0 0 -0.092,-0.328 0.669,0.669 0 0 0 -0.412,-0.078 v 0.664 a 0.624,0.624 0 0 1 -0.031,0.238 0.2,0.2 0 0 1 -0.108,0.115 0.476,0.476 0 0 1 -0.24,0.053 1.018,1.018 0 0 1 -0.317,-0.053 l 0.055,-0.222 a 0.564,0.564 0 0 0 0.141,0.026 c 0.05,0 0.092,-0.015 0.1,-0.04 a 0.215,0.215 0 0 0 0.028,-0.135 v -0.631 c -0.057,0 -0.149,0 -0.271,0.013 z m -1.742,12.79 a 0.809,0.809 0 0 0 -0.2,-0.229 0.158,0.158 0 0 0 -0.161,0.01 0.192,0.192 0 0 0 -0.084,0.185 1.2,1.2 0 0 0 0.113,0.388 l 0.154,0.346 -0.282,0.188 -0.086,-0.223 a 1.5,1.5 0 0 1 -0.1,-0.311 l -0.479,-0.328 0.236,-0.168 0.187,0.152 a 0.522,0.522 0 0 1 0.221,-0.449 0.4,0.4 0 0 1 0.364,-0.069 0.843,0.843 0 0 1 0.393,0.335 l 0.258,0.375 -0.507,0.353 -0.143,-0.205 0.243,-0.172 z m -2.712,1.025 0.293,-0.179 0.485,0.2 a 0.214,0.214 0 0 0 0.011,-0.126 0.4,0.4 0 0 0 -0.064,-0.143 l -0.08,-0.15 0.254,-0.168 0.086,0.154 0.042,0.082 a 0.407,0.407 0 0 1 0.039,0.093 0.48,0.48 0 0 1 0.01,0.1 0.293,0.293 0 0 1 -0.024,0.121 c -0.018,0.035 -0.036,0.083 -0.059,0.123 l 0.388,0.167 0.073,0.113 -0.814,0.5 -0.132,-0.216 0.456,-0.284 z m -1.085,1.365 0.064,0.216 -0.287,0.114 -0.068,-0.222 a 1.048,1.048 0 0 1 -0.047,-0.346 0.665,0.665 0 0 1 0.1,-0.218 l -0.392,-0.229 0.353,-0.132 0.487,0.284 a 0.312,0.312 0 0 0 0,-0.293 l -0.053,-0.168 0.273,-0.113 0.037,0.128 a 0.883,0.883 0 0 1 0.044,0.333 0.582,0.582 0 0 1 -0.11,0.231 l 0.514,0.3 -0.349,0.135 -0.593,-0.344 a 0.408,0.408 0 0 0 0.031,0.317 z m -1.639,0.136 c -0.035,-0.072 -0.07,-0.126 -0.119,-0.136 a 0.3,0.3 0 0 0 -0.178,0.018 0.252,0.252 0 0 0 -0.086,0.047 l -0.1,-0.209 a 1,1 0 0 1 0.2,-0.095 0.466,0.466 0 0 1 0.351,-0.018 0.41,0.41 0 0 1 0.216,0.258 l 0.233,0.644 -0.615,0.229 -0.083,-0.238 0.313,-0.113 z m -1.912,-2.882 c 0,-0.33 1.579,-0.571 2.047,-0.174 0.328,0.289 0.192,0.613 -1.023,0.635 -1.315,0.012 -1.02,-0.463 -1.02,-0.463 z m 0.917,3.848 -0.317,0.066 -0.225,-1.072 0.317,-0.071 z m -3.577,0.1 a 0.8,0.8 0 0 0 -0.062,-0.293 0.148,0.148 0 0 0 -0.15,-0.077 0.21,0.21 0 0 0 -0.163,0.117 1.324,1.324 0 0 0 -0.09,0.4 l -0.047,0.368 -0.338,0.033 0.045,-0.245 c 0.018,-0.145 0.044,-0.249 0.055,-0.321 l -0.238,-0.523 0.289,-0.021 0.086,0.223 a 0.51,0.51 0 0 1 0.415,-0.278 0.4,0.4 0 0 1 0.353,0.128 0.746,0.746 0 0 1 0.163,0.485 l 0.042,0.452 -0.615,0.055 -0.024,-0.249 0.295,-0.034 z m -4.016,-1.171 c -0.315,-0.267 -0.13,-0.858 -0.13,-0.858 a 18.451,18.451 0 0 1 5.242,0.8 22.531,22.531 0 0 1 -5.107,0.051 z m 2.642,1.239 -0.322,0.011 -0.026,-0.615 0.331,-0.01 z m -0.893,-0.145 -0.01,0.6 -1.12,-0.032 0.02,-1.074 a 2.171,2.171 0 0 1 0.441,-0.029 1.125,1.125 0 0 1 0.43,0.071 0.35,0.35 0 0 1 0.185,0.176 0.5,0.5 0 0 1 0.058,0.281 z m 0.926,-2.214 a 13.486,13.486 0 0 0 -2.671,-0.013 c 0.1,-0.465 0.8,-0.644 0.8,-0.644 a 17.828,17.828 0 0 1 5.46,0.392 l 0.115,1.091 c 0,0 -2.453,-0.665 -3.699,-0.833 z m 3.528,-0.844 0.011,0.073 a 21.911,21.911 0 0 0 -5.4,-0.247 l 0.853,-0.7 a 14.548,14.548 0 0 1 4.232,-0.011 c -0.226,0.426 0.31,0.878 0.31,0.878 z m -0.062,-1.185 c -0.957,-0.379 -3.848,0.018 -3.848,0.018 1.314,-0.981 4.462,-0.531 4.462,-0.531 a 6.412,6.412 0 0 0 -0.608,0.506 z m 4.66,-2.3 1.887,0.093 0.073,0.8 a 5.5,5.5 0 0 1 -2.322,-0.108 z m -0.311,-0.293 c -0.053,-0.075 0.051,-0.181 0.051,-0.181 l 0.09,0.181 c 0,0 -0.08,0.083 -0.135,0 z m 1.058,-1.544 a 4.023,4.023 0 0 0 -1.321,0.055 l -0.384,-0.514 c 0.521,-0.393 1.773,-0.158 1.773,-0.158 z m -2.721,1.958 -0.225,0.274 c 0,0 -0.306,-0.593 0.212,-0.779 a 1.418,1.418 0 0 0 0.019,0.503 z m 1.537,-0.159 -0.638,0.885 a 3.827,3.827 0 0 1 -0.9,-0.245 c 0,0 0.944,-0.838 1.544,-0.642 z m -0.946,-0.586 a 0.864,0.864 0 0 0 -0.126,0.51 l -0.293,0.158 c 0,0 -0.259,-0.505 0.421,-0.67 z m 0.88,0.319 -0.318,0.022 c 0,0 0.064,-0.489 0.432,-0.293 z m -0.3,-0.414 -0.186,0.474 -0.368,0.073 c 0,0 0.041,-0.682 0.562,-0.549 z m -1.22,-0.787 -0.62,-0.357 a 1.659,1.659 0 0 1 1.359,-0.4 l 0.324,0.553 a 5.716,5.716 0 0 0 -1.055,0.202 z m -0.216,0.119 a 0.946,0.946 0 0 0 -0.721,0.525 l -1.017,-0.046 a 1.471,1.471 0 0 1 1.134,-0.743 z m -0.633,2.172 c 0,0 0.125,0.243 0.26,0.293 v 0.336 a 0.412,0.412 0 0 1 -0.252,-0.631 z m 0.229,1.18 a 1.075,1.075 0 0 1 -0.313,-0.08 c -0.174,-0.077 -0.313,-0.242 -0.06,-0.58 a 0.377,0.377 0 0 0 0.331,0.34 l 0.015,0.136 z m 0.146,-1.853 c 0,0 -0.018,0.315 0.133,0.439 l -0.1,0.368 c 0,0 -0.567,-0.401 -0.025,-0.808 z m -0.4,-0.713 c 0,0 0.657,0.393 -0.47,0.8 0,0 -1.16,-0.571 -0.8,-0.7 a 5.4,5.4 0 0 1 1.275,-0.102 z m -0.256,1.193 a 5.082,5.082 0 0 0 -0.32,1.065 l -0.847,-0.244 0.081,-1.407 z m 1.275,1.321 a 1.122,1.122 0 0 0 -0.148,-0.115 0.645,0.645 0 0 0 -0.077,-0.064 c -0.09,-0.061 -0.15,-0.1 -0.156,-0.1 l 0.046,-0.126 0.174,-0.56 a 2.2,2.2 0 0 1 0.878,0.247 v 1.18 a 1.142,1.142 0 0 1 -0.289,-0.011 2.363,2.363 0 0 0 -0.423,-0.453 z m 0.394,1.467 a 1.761,1.761 0 0 1 0.146,-0.324 0.517,0.517 0 0 0 0.057,-0.281 7.407,7.407 0 0 0 1.264,0.208 v 0.721 l -1.522,0.7 z m 1.811,0.152 v -0.516 a 3.814,3.814 0 0 0 0.975,0 z m -1.008,-1.036 0.077,-1.191 a 9.662,9.662 0 0 0 2.58,0.108 v 1.083 a 3.963,3.963 0 0 1 -2.657,0 z m 1.841,-4.32 0.106,-0.7 c 1.056,-0.073 1.314,0.172 1.314,0.172 l -0.064,0.646 z m 2.719,-0.536 c 0.194,0.386 -0.545,0.836 -0.7,0.4 -0.155,-0.436 -0.035,-0.466 -0.035,-0.466 0,0 0.549,-0.333 0.741,0.064 z m -0.194,-0.542 a 0.709,0.709 0 0 1 0.123,-0.719 1.558,1.558 0 0 0 0.474,0.426 c 0.226,0.083 -0.457,0.769 -0.592,0.291 z m 0.082,2.282 c -0.439,0.11 -0.71,-0.63 -0.373,-0.833 a 0.271,0.271 0 0 1 0.423,0.168 c 0.011,0.031 0.029,0.055 0.042,0.086 0.083,0.123 0.275,0.48 -0.087,0.577 z m -0.724,-2.183 c -0.606,0.185 -0.695,-0.593 -0.695,-0.593 a 1.378,1.378 0 0 1 0.947,-0.205 c 0,0 0.347,0.612 -0.247,0.796 z m -0.615,5.05 v -0.972 a 6.294,6.294 0 0 0 1.339,-0.126 16.283,16.283 0 0 1 -1.334,1.096 z m -0.027,-1.354 -0.1,-0.8 a 6,6 0 0 0 1.5,-0.093 l 0.434,0.458 c -0.309,0.415 -1.828,0.433 -1.828,0.433 z m 1.881,-2.637 a 1.053,1.053 0 0 0 0.4,0.031 0.205,0.205 0 0 1 0.225,0.293 0.548,0.548 0 0 1 -0.516,0.221 c -0.555,0 -0.412,-0.631 -0.103,-0.547 z m 0.576,-0.357 c -0.276,0.256 -0.649,0.146 -0.649,-0.293 0,-0.439 0.567,-0.132 0.567,-0.132 0,0 0.361,0.173 0.088,0.422 z m -4.19,-7.434 h -0.249 l 0.146,-0.53 h 0.406 z m -15.47,10.17 0.121,-0.011 0.15,0.3 -0.172,0.029 c -0.027,-0.104 -0.062,-0.21 -0.093,-0.32 z m 0.178,0.534 0.677,-0.088 -0.042,0.306 -0.523,0.1 c -0.031,-0.109 -0.069,-0.217 -0.106,-0.321 z m 0.188,0.511 h 0.578 l 0.324,0.375 h -0.758 c -0.044,-0.126 -0.089,-0.258 -0.138,-0.377 z m 0.329,0.818 c -0.035,-0.084 -0.075,-0.174 -0.11,-0.26 h 0.886 l 0.534,0.377 h -1.231 z m 0.161,0.278 h 1.25 l 0.375,0.552 h -1.324 z m 1.632,2.532 -0.276,0.075 -0.531,-1.036 h 0.893 z m 0.086,-1.248 h -1.023 l -0.331,-0.551 h 1.262 a 0.47,0.47 0 0 1 0.097,0.548 z m -0.075,-2.2 c -0.468,-0.192 -0.384,-0.01 -0.65,0.165 -0.266,0.174 -0.148,-0.172 -0.309,-0.348 -0.161,-0.176 -0.5,-0.094 -0.28,-0.511 0.22,-0.417 0.163,-0.712 -0.294,-0.655 -0.457,0.057 -0.51,0.119 -0.727,-0.216 -0.217,-0.335 0.266,-0.36 0.251,-0.686 -0.015,-0.326 -0.32,0.048 -0.038,-0.587 0.282,-0.635 1.1,0.377 1.1,-0.258 0,-0.635 0.32,-0.295 0.613,-0.516 0.293,-0.221 -0.185,-0.666 0.366,-0.869 0.551,-0.203 0.734,0.578 1.156,0.239 a 0.56,0.56 0 0 1 0.931,0.321 c 0,0.329 -0.159,0.715 0.326,0.671 0.485,-0.044 0,-0.882 0.761,-0.452 0.761,0.43 0.556,-0.273 0.969,0.236 0.413,0.509 -0.265,0.833 0.4,1 0.665,0.167 0.022,0.424 0.47,0.783 0.448,0.359 0.348,0.964 -0.1,0.977 -0.448,0.013 -0.333,0.064 -0.45,0.372 -0.117,0.308 -0.463,0.24 -0.853,0.212 -0.39,-0.028 -0.141,0.413 -0.715,0.5 -0.574,0.087 -0.849,-0.713 -0.849,-0.713 -0.443,0.348 -0.644,0.287 -0.644,0.287 -0.286,0.066 -0.635,-0.426 -0.635,-0.426 -0.361,-0.235 -0.328,0.672 -0.794,0.475 z m 0.71,1.111 a 0.492,0.492 0 0 1 -0.081,-0.491 c 0.152,-0.089 0.288,-0.512 0.288,-0.512 0.229,0.287 0.783,0.115 0.783,0.115 0.456,0.293 0,0.606 -0.386,0.888 -0.386,0.282 -0.4,0.251 -0.598,0 z m 6.823,8.819 c -1.78,-0.589 -6.367,-4.333 -6.367,-4.333 3.335,0.282 7.2,3.021 8.047,3.65 -0.491,0.232 -1.132,0.499 -1.674,0.684 z m 2.258,-0.968 a 21.255,21.255 0 0 0 -6.034,-3.231 c 5.167,-0.185 7.646,1.522 8.172,1.864 a 14.679,14.679 0 0 1 -2.132,1.368 z m 2.516,-1.663 c -1.03,-1.332 -4.933,-1.669 -4.933,-1.669 a 22.255,22.255 0 0 1 6.666,0 15.962,15.962 0 0 1 -1.728,1.67 z m 2.034,-2.018 a 13.888,13.888 0 0 0 -4.073,-0.26 17.523,17.523 0 0 1 5.121,-1.146 c -0.322,0.481 -0.667,0.953 -1.043,1.408 z m 1.246,-1.716 -1.972,0.137 c 0,0 2.139,-1.305 3.251,-2.075 -0.264,0.53 -0.954,1.446 -1.274,1.94 z m 1.118,-5.427 c -0.439,-0.285 0.128,-0.648 0.128,-0.648 0.358,-0.415 0.525,-0.166 0.545,0.132 0.02,0.298 -0.225,0.807 -0.668,0.518 z m 0.408,-2.832 c -0.379,-0.064 -0.073,-0.792 -0.073,-0.792 0.4,0.049 0.5,-0.209 0.5,-0.209 0.271,0.386 -0.03,1.061 -0.418,1.003 z m 0.754,1.413 c -0.227,0.227 -0.386,0.161 -0.391,-0.366 0,-0.527 0.441,-0.419 0.441,-0.419 0.224,-0.01 0.187,0.556 -0.045,0.788 z m -0.391,-1.272 c 0.3,-0.1 0.481,-0.681 0.481,-0.681 0.636,1.185 -0.475,0.685 -0.475,0.685 z m 0.3,-1.244 c -0.181,-0.448 0.143,-0.459 0.25,-0.465 0,0 0.07,0.366 0.258,0.483 0,0 -0.321,0.422 -0.505,-0.015 z m 0.949,1.054 a 0.3,0.3 0 0 1 -0.437,-0.174 0.685,0.685 0 0 1 0.059,-0.623 c 0,0 0.333,-0.176 0.52,-0.02 -0.04,0.271 -0.089,0.544 -0.139,0.82 z m 0.216,-1.184 a 0.562,0.562 0 0 1 -0.728,-0.159 0.046,0.046 0 0 1 0,-0.02 0.619,0.619 0 0 1 0.47,-0.869 0.731,0.731 0 0 1 0.414,0.031 c -0.041,0.338 -0.094,0.68 -0.153,1.019 z m 0.247,-6.657 -23.069,0.026 v -2.172 l 4.53,-4.161 14.021,-0.01 4.534,4.168 z"
         transform="translate(-1389.669,-2031.391)"
         id="path46" />
      <rect
         y="0"
         x="0"
         class="a"
         width="0.55800003"
         height="2.7869999"
         transform="translate(19.99,7.599)"
         id="rect48" />
      <path
         class="a"
         d="m 1437.823,2060.328 a 1.531,1.531 0 0 1 -0.024,0.421 0.275,0.275 0 0 1 -0.132,0.141 l -0.58,-1.217 h -0.7 l 1.2,2.221 h -1.111 v 0.567 h 1.828 v -0.415 l -0.414,-0.757 a 0.811,0.811 0 0 0 0.373,-0.4 2.027,2.027 0 0 0 0.106,-0.681 v -0.536 h -0.536 z"
         transform="translate(-1423.831,-2052.074)"
         id="path50" />
    </g>
  </g>
</svg>
