<?xml version="1.0" encoding="UTF-8" standalone="no"?>
<svg
   xmlns:dc="http://purl.org/dc/elements/1.1/"
   xmlns:cc="http://creativecommons.org/ns#"
   xmlns:rdf="http://www.w3.org/1999/02/22-rdf-syntax-ns#"
   xmlns:svg="http://www.w3.org/2000/svg"
   xmlns="http://www.w3.org/2000/svg"
   xmlns:sodipodi="http://sodipodi.sourceforge.net/DTD/sodipodi-0.dtd"
   xmlns:inkscape="http://www.inkscape.org/namespaces/inkscape"
   inkscape:version="1.0 (4035a4fb49, 2020-05-01)"
   sodipodi:docname="rishon.svg"
   id="svg92"
   version="1.1"
   viewBox="0 0 127.893 37.295"
   height="37.295"
   width="127.893">
  <metadata
     id="metadata96">
    <rdf:RDF>
      <cc:Work
         rdf:about="">
        <dc:format>image/svg+xml</dc:format>
        <dc:type
           rdf:resource="http://purl.org/dc/dcmitype/StillImage" />
        <dc:title></dc:title>
      </cc:Work>
    </rdf:RDF>
  </metadata>
  <sodipodi:namedview
     inkscape:current-layer="svg92"
     inkscape:window-maximized="0"
     inkscape:window-y="0"
     inkscape:window-x="0"
     inkscape:cy="18.647499"
     inkscape:cx="63.946499"
     inkscape:zoom="9.4453959"
     showgrid="false"
     id="namedview94"
     inkscape:window-height="480"
     inkscape:window-width="751"
     inkscape:pageshadow="2"
     inkscape:pageopacity="0"
     guidetolerance="10"
     gridtolerance="10"
     objecttolerance="10"
     borderopacity="1"
     bordercolor="#666666"
     pagecolor="#ffffff" />
  <defs
     id="defs4">
    <style
       id="style2">.a{fill:#f26526;}</style>
  </defs>
  <g
     id="g90"
     transform="translate(-1389.669 -2031.391)">
    <g
       id="g52"
       transform="translate(1389.669 2031.391)">
      <path
         id="path6"
         transform="translate(-1426.892 -2093.624)"
         d="M1441.012,2117.367a.439.439,0,0,0,0-.877.439.439,0,1,0,0,.877Z"
         class="a" />
      <rect
         id="rect8"
         transform="translate(9.762 7.599)"
         height="3.72"
         width="0.545"
         class="a" />
      <path
         id="path10"
         transform="translate(-1427.672 -2089.248)"
         d="M1442.031,2111.285a.389.389,0,1,0-.395-.384A.394.394,0,0,0,1442.031,2111.285Z"
         class="a" />
      <path
         id="path12"
         transform="translate(-1420.62 -2093.233)"
         d="M1432.9,2116.412a.454.454,0,1,0-.456.454A.454.454,0,0,0,1432.9,2116.412Z"
         class="a" />
      <path
         id="path14"
         transform="translate(-1417.74 -2090.119)"
         d="M1428.462,2111.7a.41.41,0,0,0-.408.408.406.406,0,0,0,.811,0A.409.409,0,0,0,1428.462,2111.7Z"
         class="a" />
      <path
         id="path16"
         transform="translate(-1424.017 -2091.193)"
         d="M1437.087,2114.05a.442.442,0,1,0-.45-.443A.446.446,0,0,0,1437.087,2114.05Z"
         class="a" />
      <path
         id="path18"
         transform="translate(-1468.94 -2073.968)"
         d="M1498.067,2089.612a1.964,1.964,0,0,1,.333.745S1498.931,2089.841,1498.067,2089.612Z"
         class="a" />
      <path
         id="path20"
         transform="translate(-1414.769 -2067.246)"
         d="M1424.194,2080.78a.224.224,0,0,0,.148-.051.168.168,0,0,0,.059-.124.179.179,0,0,0-.059-.134.228.228,0,0,0-.148-.051.218.218,0,0,0-.144.051.176.176,0,0,0-.059.134.16.16,0,0,0,.059.124A.216.216,0,0,0,1424.194,2080.78Z"
         class="a" />
      <path
         id="path22"
         transform="translate(-1414.894 -2065.835)"
         d="M1424.32,2078.773a.129.129,0,0,0,.11-.04.1.1,0,0,0,.051-.1.118.118,0,0,0-.051-.106.156.156,0,0,0-.11-.035.184.184,0,0,0-.11.035.126.126,0,0,0-.047.106.109.109,0,0,0,.047.1A.148.148,0,0,0,1424.32,2078.773Z"
         class="a" />
      <path
         id="path24"
         transform="translate(-1418.615 -2065.835)"
         d="M1429.419,2078.773a.149.149,0,0,0,.11-.04.117.117,0,0,0,.049-.1.143.143,0,0,0-.049-.106.182.182,0,0,0-.11-.035.2.2,0,0,0-.119.035.142.142,0,0,0-.049.106.118.118,0,0,0,.051.1A.155.155,0,0,0,1429.419,2078.773Z"
         class="a" />
      <path
         id="path26"
         transform="translate(-1418.52 -2067.246)"
         d="M1429.323,2080.78a.223.223,0,0,0,.143-.051.187.187,0,0,0,.053-.124.185.185,0,0,0-.058-.134.2.2,0,0,0-.139-.051.212.212,0,0,0-.148.051.179.179,0,0,0-.055.134.169.169,0,0,0,.053.124A.225.225,0,0,0,1429.323,2080.78Z"
         class="a" />
      <path
         id="path28"
         transform="translate(-1438.265 -2065.931)"
         d="M1456.71,2079.326a.444.444,0,0,0,.091-.3.411.411,0,0,0-.093-.293.3.3,0,0,0-.247-.111.291.291,0,0,0-.256.12.477.477,0,0,0-.084.286.437.437,0,0,0,.093.3.307.307,0,0,0,.247.11A.3.3,0,0,0,1456.71,2079.326Z"
         class="a" />
      <path
         id="path30"
         transform="translate(-1421.569 -2052.073)"
         d="M1433.29,2061.459l.553-.175v-1.612h-.553Z"
         class="a" />
      <rect
         id="rect32"
         transform="translate(10.786 7.599)"
         height="2.787"
         width="0.554"
         class="a" />
      <rect
         id="rect34"
         transform="translate(18.965 7.599)"
         height="3.72"
         width="0.547"
         class="a" />
      <path
         id="path36"
         transform="translate(-1429.851 -2049.625)"
         d="M1445.2,2056.324h-.582v1.469h1.12l-.644,2.218h.615l.62-2.309v-.479H1445.2Z"
         class="a" />
      <rect
         id="rect38"
         transform="translate(16.777 8.786)"
         height="0.393"
         width="1.735"
         class="a" />
      <path
         id="path40"
         transform="translate(-1454.206 -2052.074)"
         d="M1479.946,2060.818a1.921,1.921,0,0,0,.079-.679v-.465h-.573v.62a3.521,3.521,0,0,1-.016.4c-.037.194-.1.236-.11.236s-.245-.459-.412-.737c-.117-.2-.186-.317-.3-.522h-.692c.013.035.15.227.24.384.106.148.24.4.274.456l.059.1a1.434,1.434,0,0,0-.369.536,2.505,2.505,0,0,0-.119.922v.39h.578v-.693a1.959,1.959,0,0,1,.042-.533.609.609,0,0,1,.1-.22l.047.073c.042.073.168.3.3.541.137.324.241.507.382.833h.639c-.075-.172-.128-.28-.214-.456-.093-.231-.258-.532-.274-.578l-.039-.073A1.188,1.188,0,0,0,1479.946,2060.818Z"
         class="a" />
      <path
         id="path42"
         transform="translate(-1460.784 -2052.074)"
         d="M1487.825,2060.447a1.316,1.316,0,0,1,.051.538v1.475h.567v-1.585a1.655,1.655,0,0,0-.139-.8.816.816,0,0,0-.8-.406h-.586v.569h.516A.378.378,0,0,1,1487.825,2060.447Z"
         class="a" />
      <path
         id="path44"
         transform="translate(-1446.518 -2052.074)"
         d="M1469.441,2060.487c0,.812-.059,1.072-.2,1.281a.649.649,0,0,1-.573.342c-.483.043-.647-.527-.647-.527a.911.911,0,0,0,.725-.344,1.5,1.5,0,0,0,.221-.82v-.745h-.547v.814a.9.9,0,0,1-.192.609.473.473,0,0,1-.267.1v-1.526h-.556v1.316c0,1.145.487,1.632,1.261,1.623a1.164,1.164,0,0,0,.895-.386c.36-.459.413-.778.413-1.773v-.781h-.534Z"
         class="a" />
      <path
         id="path46"
         transform="translate(-1389.669 -2031.391)"
         d="M1408.317,2031.391a18.648,18.648,0,1,0,18.649,18.65A18.651,18.651,0,0,0,1408.317,2031.391Zm-11.081,18.685a3.435,3.435,0,0,1-.1-.725l-.156-1.116a2.6,2.6,0,0,0,1.305-.09c.9-.229.706-.112,1.6.031s.69-.465,1.343-.465.648.419,1.616-.051c.924-.454.8.47.789.543l-2.551,1.561.75.113-.121.611c.176.042.4.095.666.17.313.088.679.192,1.068.322a10.087,10.087,0,0,1,1.2.472c.1.042.194.1.271.128a1.528,1.528,0,0,0,.269.049.781.781,0,0,0,.269-.007c.1-.013.2-.026.3-.042.395-.068.772-.115,1.087-.156.417-.062.743-.1.924-.119l-.02-.831.765-.1s-3.017-1.927-3.012-2.042c.125-1.482-.108-1.943-.677-2.161-1.463-.554-1.438.624-2.393.377-1-.262-1.526-.524-2.256-.249a2.69,2.69,0,0,1-1.936.018,2.287,2.287,0,0,0-1.275.055l0,.58.018.058a5.138,5.138,0,0,1,2.157.033c1.067.2,1.2-.666,2.258-.293,1.647.588,1.8.084,2.278-.179s1.178-.355,1.29.284a9.119,9.119,0,0,1,.121,1.321l-.519-.337a.3.3,0,0,0-.271-.024.9.9,0,0,0-.626-.589l-.009,0a1.191,1.191,0,0,0-.988.128,1.412,1.412,0,0,1-.582.163c-.7.049-.745-.313-1.325,0s-.816.408-1.149.28a1.812,1.812,0,0,0-1.422.046,1.624,1.624,0,0,1-1.213,0l-.018-.882-.134-.533s.046-.018.13-.046l-.009-.58h16.6v.551s-.785.284-.485.818.578-.569.939-.6-.276,1.008-.223,1.354.957.037.591.39c-.553.523-.221,1.839-.221,1.839-1.082-.009-3.195.847-4.437.741a2.424,2.424,0,0,0-1.1.364l-.494.148-.115.033-.245.075v-.007c-.225.064-.542.152-.867.221s-.688.145-1.087.223c-.1.015-.2.037-.306.057a1.467,1.467,0,0,1-.357.013,1.375,1.375,0,0,1-.355-.07c-.123-.046-.229-.1-.318-.144-.377-.182-.783-.333-1.148-.476s-.732-.271-1.037-.377c-.6-.221-1.266-.41-1.266-.41A12.621,12.621,0,0,0,1397.235,2050.076Zm.079-5.751v-.273a.6.6,0,0,0,.437-.247h.265v1.35h-.353v-.955A1.024,1.024,0,0,1,1397.315,2044.325Zm1.29-.174a.376.376,0,0,1,.121-.254.693.693,0,0,1,.737,0,.339.339,0,0,1,.127.254.3.3,0,0,1-.156.271.37.37,0,0,1,.219.34.366.366,0,0,1-.155.3.594.594,0,0,1-.4.126.631.631,0,0,1-.4-.126.363.363,0,0,1-.152-.3.347.347,0,0,1,.064-.205.633.633,0,0,1,.159-.135A.3.3,0,0,1,1398.6,2044.151Zm1.376,0a.355.355,0,0,1,.119-.254.52.52,0,0,1,.373-.106.512.512,0,0,1,.36.106.333.333,0,0,1,.128.254.306.306,0,0,1-.152.271.375.375,0,0,1,.216.34.36.36,0,0,1-.148.3.617.617,0,0,1-.4.126.651.651,0,0,1-.41-.126.356.356,0,0,1-.15-.3.368.368,0,0,1,.066-.205.569.569,0,0,1,.152-.135A.3.3,0,0,1,1399.981,2044.151Zm1.932-.04a.127.127,0,0,0-.1-.044.155.155,0,0,0-.15.137l-.348-.053a.476.476,0,0,1,.522-.36.513.513,0,0,1,.349.113.391.391,0,0,1,.132.3.41.41,0,0,1-.079.234,1.314,1.314,0,0,1-.289.261.787.787,0,0,0-.185.172h.58v.28h-1.054a.576.576,0,0,1,.114-.324.947.947,0,0,1,.265-.282,1.153,1.153,0,0,0,.219-.2.251.251,0,0,0,.062-.15A.109.109,0,0,0,1401.912,2044.111Zm2.94.077a.67.67,0,0,0-.386-.091c-.128,0-.26.013-.412.029l-.026-.278a2.819,2.819,0,0,1,.5-.033,1.186,1.186,0,0,1,.49.082.529.529,0,0,1,.243.219.707.707,0,0,1,.075.359v.679h-.368v-.631A.407.407,0,0,0,1404.852,2044.188Zm-.441.278v.688h-.373v-.688Zm1.193-.34v-.3h1.347v.3h-.225v1.028h-.36v-1.028Zm1.542.373a.666.666,0,0,1,.2-.5.711.711,0,0,1,.523-.2.757.757,0,0,1,.377.09.65.65,0,0,1,.247.24.692.692,0,0,1,.1.359.677.677,0,0,1-.2.5.723.723,0,0,1-.516.2.736.736,0,0,1-.518-.19A.64.64,0,0,1,1407.146,2044.5Zm1.744.655v-1.332h.384v1.332Zm1.023-1a.426.426,0,0,0-.311-.04l-.024-.28a2.091,2.091,0,0,1,.26-.015.525.525,0,0,1,.389.121.508.508,0,0,1,.123.39v.827h-.754v-.3h.39v-.5A.237.237,0,0,0,1409.913,2044.151Zm3.4.7v.3h-1.389v-.3h.767v-.351a.387.387,0,0,0-.1-.306.485.485,0,0,0-.335-.084c-.1,0-.205.007-.32.017l-.024-.269a1.558,1.558,0,0,1,.408-.042.868.868,0,0,1,.56.144.586.586,0,0,1,.179.479v.412Zm1.411.9c-.167.229-.9.333-.9.333l-.037-.333Zm-.609-1.4.144-.53h.406l-.3.53Zm1.78-.13a.158.158,0,0,0-.159-.106.235.235,0,0,0-.2.119,1.391,1.391,0,0,0-.148.469l-.086.45h-.384l.06-.289c.04-.167.077-.3.106-.38l-.234-.664h.335l.081.292a.593.593,0,0,1,.505-.3.488.488,0,0,1,.39.181,1.017,1.017,0,0,1,.143.606v.552h-.713v-.3h.344v-.267A.971.971,0,0,0,1415.9,2044.221Zm-.662,1.989c.446.069.344-.212.606-.24s.309.593.8.586,0-.361-.251-.452a.743.743,0,0,1-.392-.382h1.25a2.019,2.019,0,0,1,.463.833c-.135-.105-.3-.163-.346-.044-.1.238.183.52-.216.522s-.434.5-.653.121c-.2-.322-.37-.58-.926-.176,0,0,.686-.166.673.152s.242.24.227.406-.825.951-.931,1.2-.375.23-.474.432-.1.214.17.062.322-.148.5-.415a2.046,2.046,0,0,1,.739-.831c.331-.142.4-.693.765-.646s-.134.445,0,.631.143-.207.344-.291.211-.059.181.291-.181,1.094.073.968a1.206,1.206,0,0,0-.016-1.466s-.452-.573.037-.694l.662-1.054h1.158c-.3.024-1.526.56-1.23.9s.381-.368.917.185.1.364.287.633a2.909,2.909,0,0,1,.148,1.146s-.035-.161-.487-.075-.613-.051-.532-.492-.026-.5-.309-.514-.5.22-.15.541.62,1.056.2,1.019-.32.1-.355.461-.134.113-.406.175-.243.529-.514.412.22-.313-.075-.395-.133-.227-.075-.536.768-.463.406-.671-.631.353-.684.748-.516.8-.84.728-.222-.009-.549.106a.337.337,0,0,1-.443-.172c-.405.309-.465.205-.465.205-.251-.251.128-.278.143-.516s-.165-.146-.069-.359.236.009,0-.346.318-.591.629-.858.551-.13.781-.282.009-.443-.326-.406-.34.487-.649.468-.082-.108-.434-.04-.3-.139-.2-.315-.177-.139-.051-.315.344-.146.172-.287-.326-.337.148-.354S1414.789,2046.137,1415.239,2046.21Zm2.027-2.011a.538.538,0,0,0-.351-.088c-.086,0-.19,0-.324.015l-.028-.273a1.839,1.839,0,0,1,.436-.038.9.9,0,0,1,.558.144.577.577,0,0,1,.19.479v.717h-.366v-.655A.349.349,0,0,0,1417.265,2044.2Zm.785-.075-.037-.267a4.61,4.61,0,0,1,.708-.042,1.773,1.773,0,0,1,.487.049.442.442,0,0,1,.269.187.663.663,0,0,1,.095.386v.717h-.371v-.655a.432.432,0,0,0-.092-.328.669.669,0,0,0-.412-.078v.664a.624.624,0,0,1-.031.238.2.2,0,0,1-.108.115.476.476,0,0,1-.24.053,1.018,1.018,0,0,1-.317-.053l.055-.222a.564.564,0,0,0,.141.026c.05,0,.092-.015.1-.04a.215.215,0,0,0,.028-.135v-.631C1418.264,2044.109,1418.172,2044.114,1418.05,2044.124Zm-1.742,12.79a.809.809,0,0,0-.2-.229.158.158,0,0,0-.161.009.192.192,0,0,0-.084.185,1.2,1.2,0,0,0,.113.388l.154.346-.282.188-.086-.223a1.5,1.5,0,0,1-.1-.311l-.479-.328.236-.168.187.152a.522.522,0,0,1,.221-.449.4.4,0,0,1,.364-.069.843.843,0,0,1,.393.335l.258.375-.507.353-.143-.205.243-.172Zm-2.712,1.025.293-.179.485.2a.214.214,0,0,0,.011-.126.4.4,0,0,0-.064-.143l-.08-.15.254-.168.086.154.042.082a.407.407,0,0,1,.039.093.48.48,0,0,1,.007.1.293.293,0,0,1-.024.121c-.018.035-.036.083-.059.123l.388.167.073.113-.814.5-.132-.216.456-.284Zm-1.085,1.365.064.216-.287.114-.068-.222a1.048,1.048,0,0,1-.047-.346.665.665,0,0,1,.1-.218l-.392-.229.353-.132.487.284a.312.312,0,0,0,0-.293l-.053-.168.273-.113.037.128a.883.883,0,0,1,.044.333.582.582,0,0,1-.11.231l.514.3-.349.135-.593-.344A.408.408,0,0,0,1412.511,2059.3Zm-1.639.136c-.035-.072-.07-.126-.119-.136a.3.3,0,0,0-.178.018.252.252,0,0,0-.086.047l-.1-.209a1,1,0,0,1,.2-.095.466.466,0,0,1,.351-.018.41.41,0,0,1,.216.258l.233.644-.615.229-.083-.238.313-.113Zm-1.912-2.882c0-.33,1.579-.571,2.047-.174.328.289.192.613-1.023.635C1408.665,2057.034,1408.96,2056.559,1408.96,2056.559Zm.917,3.848-.317.066-.225-1.072.317-.071Zm-3.577.1a.8.8,0,0,0-.062-.293.148.148,0,0,0-.15-.077.21.21,0,0,0-.163.117,1.324,1.324,0,0,0-.09.4l-.047.368-.338.033.045-.245c.018-.145.044-.249.055-.321l-.238-.523.289-.021.086.223a.51.51,0,0,1,.415-.278.4.4,0,0,1,.353.128.746.746,0,0,1,.163.485l.042.452-.615.055-.024-.249.295-.034Zm-4.016-1.171c-.315-.267-.13-.858-.13-.858a18.451,18.451,0,0,1,5.242.8A22.531,22.531,0,0,1,1402.285,2059.331Zm2.642,1.239-.322.011-.026-.615.331-.009Zm-.893-.145-.009.6L1402.9,2061l.02-1.074a2.171,2.171,0,0,1,.441-.029,1.125,1.125,0,0,1,.43.071.35.35,0,0,1,.185.176A.5.5,0,0,1,1404.034,2060.425Zm.926-2.214a13.486,13.486,0,0,0-2.671-.013c.1-.465.8-.644.8-.644a17.828,17.828,0,0,1,5.46.392l.115,1.091S1406.206,2058.379,1404.96,2058.211Zm3.528-.844.011.073a21.911,21.911,0,0,0-5.4-.247l.853-.7a14.548,14.548,0,0,1,4.232-.011C1407.953,2056.915,1408.489,2057.367,1408.489,2057.367Zm-.062-1.185c-.957-.379-3.848.018-3.848.018,1.314-.981,4.462-.531,4.462-.531A6.412,6.412,0,0,0,1408.427,2056.182Zm4.66-2.3,1.887.093.073.8a5.5,5.5,0,0,1-2.322-.108Zm-.311-.293c-.053-.075.051-.181.051-.181l.09.181S1412.831,2053.679,1412.776,2053.594Zm1.058-1.544a4.023,4.023,0,0,0-1.321.055l-.384-.514c.521-.393,1.773-.158,1.773-.158Zm-2.721,1.958-.225.274s-.306-.593.212-.779A1.418,1.418,0,0,0,1411.113,2054.008Zm1.537-.159-.638.885a3.827,3.827,0,0,1-.9-.245S1412.05,2053.653,1412.65,2053.849Zm-.946-.586a.864.864,0,0,0-.126.51l-.293.158S1411.02,2053.428,1411.7,2053.263Zm.88.319-.318.022s.064-.489.432-.293Zm-.3-.414-.186.474-.368.073S1411.765,2053.035,1412.286,2053.168Zm-1.22-.787-.62-.357a1.659,1.659,0,0,1,1.359-.4l.324.553A5.716,5.716,0,0,0,1411.066,2052.381Zm-.216.119a.946.946,0,0,0-.721.525l-1.017-.046a1.471,1.471,0,0,1,1.134-.743Zm-.633,2.172s.125.243.26.293v.336A.412.412,0,0,1,1410.217,2054.672Zm.229,1.18a1.075,1.075,0,0,1-.313-.08c-.174-.077-.313-.242-.06-.58a.377.377,0,0,0,.331.34l.015.136Zm.146-1.853s-.018.315.133.439l-.1.368S1410.05,2054.407,1410.592,2054Zm-.4-.713s.657.393-.47.8c0,0-1.16-.571-.8-.7A5.4,5.4,0,0,1,1410.189,2053.286Zm-.256,1.193a5.082,5.082,0,0,0-.32,1.065l-.847-.244.081-1.407Zm1.275,1.321a1.122,1.122,0,0,0-.148-.115.645.645,0,0,0-.077-.064c-.09-.061-.15-.1-.156-.1l.046-.126.174-.56a2.2,2.2,0,0,1,.878.247v1.18a1.142,1.142,0,0,1-.289-.011A2.363,2.363,0,0,0,1411.208,2055.8Zm.394,1.467a1.761,1.761,0,0,1,.146-.324.517.517,0,0,0,.057-.281,7.407,7.407,0,0,0,1.264.208v.721l-1.522.7Zm1.811.152v-.516a3.814,3.814,0,0,0,.975,0Zm-1.008-1.036.077-1.191a9.662,9.662,0,0,0,2.58.108v1.083A3.963,3.963,0,0,1,1412.4,2056.383Zm1.841-4.32.106-.7c1.056-.073,1.314.172,1.314.172l-.064.646Zm2.719-.536c.194.386-.545.836-.7.4s-.035-.466-.035-.466S1416.774,2051.13,1416.966,2051.527Zm-.194-.542a.709.709,0,0,1,.123-.719,1.558,1.558,0,0,0,.474.426C1417.589,2050.777,1416.906,2051.463,1416.771,2050.985Zm.082,2.282c-.439.11-.71-.63-.373-.833a.271.271,0,0,1,.423.168c.011.031.029.055.042.086C1417.023,2052.813,1417.215,2053.17,1416.853,2053.267Zm-.724-2.183c-.606.185-.695-.593-.695-.593a1.378,1.378,0,0,1,.947-.205S1416.723,2050.9,1416.129,2051.084Zm-.615,5.05v-.972a6.294,6.294,0,0,0,1.339-.126A16.283,16.283,0,0,1,1415.514,2056.134Zm-.027-1.354-.1-.8a6,6,0,0,0,1.5-.093l.434.458C1417.007,2054.762,1415.488,2054.78,1415.488,2054.78Zm1.881-2.637a1.053,1.053,0,0,0,.4.031.205.205,0,0,1,.225.293.548.548,0,0,1-.516.221C1416.917,2052.688,1417.06,2052.059,1417.369,2052.143Zm.576-.357c-.276.256-.649.146-.649-.293s.567-.132.567-.132S1418.218,2051.536,1417.945,2051.785Zm-4.19-7.434h-.249l.146-.53h.406Zm-15.47,10.17.121-.011.15.3-.172.029C1398.351,2054.738,1398.316,2054.632,1398.285,2054.522Zm.178.534.677-.088-.042.306-.523.1C1398.538,2055.267,1398.5,2055.159,1398.463,2055.055Zm.188.511h.578l.324.375h-.758C1398.745,2055.818,1398.7,2055.686,1398.651,2055.567Zm.329.818c-.035-.084-.075-.174-.11-.26h.886l.534.377h-1.231Zm.161.278h1.25l.375.552h-1.324Zm1.632,2.532-.276.075-.531-1.036h.893Zm.086-1.248h-1.023l-.331-.551h1.262A.47.47,0,0,1,1400.858,2057.946Zm-.075-2.2c-.468-.192-.384-.009-.65.165s-.148-.172-.309-.348-.5-.094-.28-.511.163-.712-.294-.655-.51.119-.727-.216.266-.36.251-.686-.32.048-.038-.587,1.1.377,1.1-.258.32-.295.613-.516-.185-.666.366-.869.734.578,1.156.239a.56.56,0,0,1,.931.321c0,.329-.159.715.326.671s0-.882.761-.452.556-.273.969.236-.265.833.4,1,.022.424.47.783.348.964-.1.977-.333.064-.45.372-.463.24-.853.212-.141.413-.715.5-.849-.713-.849-.713c-.443.348-.644.287-.644.287-.286.066-.635-.426-.635-.426C1401.216,2055.04,1401.249,2055.947,1400.783,2055.75Zm.71,1.111a.492.492,0,0,1-.081-.491c.152-.089.288-.512.288-.512.229.287.783.115.783.115.456.293,0,.606-.386.888S1401.692,2057.111,1401.494,2056.862Zm6.823,8.819c-1.78-.589-6.367-4.333-6.367-4.333,3.335.282,7.2,3.021,8.047,3.65C1409.5,2065.228,1408.859,2065.495,1408.317,2065.68Zm2.258-.968a21.255,21.255,0,0,0-6.034-3.231c5.167-.185,7.646,1.522,8.172,1.864A14.679,14.679,0,0,1,1410.575,2064.712Zm2.516-1.663c-1.03-1.332-4.933-1.669-4.933-1.669a22.255,22.255,0,0,1,6.666,0A15.962,15.962,0,0,1,1413.09,2063.049Zm2.034-2.018a13.888,13.888,0,0,0-4.073-.26,17.523,17.523,0,0,1,5.121-1.146C1415.845,2060.105,1415.5,2060.577,1415.124,2061.032Zm1.246-1.716-1.972.137s2.139-1.305,3.251-2.075C1417.38,2057.906,1416.69,2058.822,1416.37,2059.316Zm1.118-5.427c-.439-.285.128-.648.128-.648.358-.415.525-.166.545.132S1417.931,2054.178,1417.488,2053.889Zm.408-2.832c-.379-.064-.073-.792-.073-.792.4.049.5-.209.5-.209C1418.589,2050.44,1418.288,2051.115,1417.9,2051.057Zm.754,1.413c-.227.227-.386.161-.391-.366s.441-.419.441-.419C1418.919,2051.675,1418.882,2052.239,1418.65,2052.471Zm-.391-1.272c.3-.1.481-.681.481-.681C1419.371,2051.7,1418.26,2051.2,1418.26,2051.2Zm.3-1.244c-.181-.448.143-.459.25-.465,0,0,.07.366.258.483C1419.065,2049.972,1418.741,2050.392,1418.557,2049.955Zm.949,1.054a.3.3,0,0,1-.437-.174.685.685,0,0,1,.059-.623s.333-.176.52-.02C1419.605,2050.46,1419.556,2050.733,1419.506,2051.009Zm.216-1.184a.562.562,0,0,1-.728-.159.046.046,0,0,1,0-.02.619.619,0,0,1,.47-.869.731.731,0,0,1,.414.031C1419.834,2049.143,1419.781,2049.485,1419.722,2049.824Zm.247-6.657-23.069.026v-2.172l4.53-4.161,14.021-.007,4.534,4.168Z"
         class="a" />
      <rect
         id="rect48"
         transform="translate(19.99 7.599)"
         height="2.787"
         width="0.558"
         class="a" />
      <path
         id="path50"
         transform="translate(-1423.831 -2052.074)"
         d="M1437.823,2060.328a1.531,1.531,0,0,1-.024.421.275.275,0,0,1-.132.141l-.58-1.217h-.7l1.2,2.221h-1.111v.567h1.828v-.415l-.414-.757a.811.811,0,0,0,.373-.4,2.027,2.027,0,0,0,.106-.681v-.536h-.536Z"
         class="a" />
    </g>
    <path
       id="path54"
       transform="translate(-123.615 -59.874)"
       d="M1561.112,2123.554c0-1.938-.776-3.312-.884-4.928a7.991,7.991,0,0,1,.692-3.692H1558.7v-1.669h6.3v1.669h-1.879a6.965,6.965,0,0,0-.49,3.616c.11,1.484.655,2.558.818,4.6a16.935,16.935,0,0,1-.178,4.311h-2.516a17.526,17.526,0,0,0,.353-3.9"
       class="a" />
    <path
       id="path56"
       transform="translate(-143.764 -59.874)"
       d="M1593.238,2122.765c0,3.235-.64,4.691-3.648,4.691h-3.334v-1.678h2.518c1.769,0,2.027-.666,2.027-2.792v-8.051h-4.463v-1.669h6.9Z"
       class="a" />
    <path
       id="path58"
       transform="translate(-167.32 -59.88)"
       d="M1621.8,2113.273c2.5,0,3.35,1.444,3.35,5.065v9.125h-2.426v-9.423c0-2.112-.242-3.1-1.766-3.1h-2.492v-1.667Z"
       class="a" />
    <path
       id="path60"
       transform="translate(-190.655 -59.88)"
       d="M1655.618,2125.783h1.767v-6.953c0-3.063-.163-3.914-1.713-3.914l-2.574,12.546h-2.313s1.294-6.065,1.621-7.63c.379-1.843,1.032-4.607-1.592-4.631h-.437v-1.927h.366c1.718,0,2.4.529,2.737,2.11h.108l.571-2.11h1.431c3.661,0,4.217,2.075,4.217,6.891v7.3h-4.188Z"
       class="a" />
    <path
       id="path62"
       transform="translate(-220.772 -59.88)"
       d="M1699.262,2127.464h-7.7v-1.678h3.7a4.6,4.6,0,0,0,.545-2.633v-8.212h-4.234v-1.667h6.655v8.991a7.788,7.788,0,0,1-.708,3.522h1.745Z"
       class="a" />
    <path
       id="path64"
       transform="translate(-259.213 -59.874)"
       d="M1753,2127.458h-8.082v-9.3a5.988,5.988,0,0,1,.76-3.222h-1.55v-1.669h5.418c2.679,0,3.453,1.546,3.453,4.263Zm-2.393-10.437c0-1.828-.6-2.1-1.66-2.1h-1.118a4.028,4.028,0,0,0-.514,2.225v8.656h3.306Z"
       class="a" />
    <path
       id="path66"
       transform="translate(-288.551 -59.88)"
       d="M1784.65,2127.807l-.408-1.656,1.987-.357c-1.005-3.2-1.563-7.8-.013-10.854h-1.594v-1.667h9.081v14.191h-2.413v-12.537h-2.721c-1.617,2.84-.75,8.805.368,12.115Z"
       class="a" />
    <path
       id="path68"
       transform="translate(-320.81 -59.88)"
       d="M1838.372,2125.783v1.678h-3.4c-.026-2.878-.247-4.494-1.758-6.051-.256-.258-.992-1.109-1.29-1.493-.873.543-.915,1.764-.915,3.187v2.679h1.363v1.678h-3.7v-4.21c0-2.26.721-3.755,2.219-4.606a6.084,6.084,0,0,1-1.334-3.7h-1.2v-1.667h3.321a8.3,8.3,0,0,0,3.01,6.583c.664-.26,1.006-1.372,1.006-2.695v-2.221h-1.363v-1.667h3.665v3.667a4.372,4.372,0,0,1-2.18,4.285,6.435,6.435,0,0,1,1.376,4.558Z"
       class="a" />
    <path
       id="path70"
       transform="translate(-121.49 -10.005)"
       d="M1560.985,2059.821v2.393h-4.111v-14.76H1555.8v-2.382h4.271v14.749Z"
       class="a" />
    <path
       id="path72"
       transform="translate(-136.369 -10.005)"
       d="M1580.832,2045.072V2059.1h-3.211v-11.648h-1.477v-2.384Z"
       class="a" />
    <path
       id="path74"
       transform="translate(-151.565 -10.005)"
       d="M1598.6,2047.454h-1.678v-2.382h4.6a8.92,8.92,0,0,1-1.614,8.219l-2.212-1.013a6.114,6.114,0,0,0,.909-4.825"
       class="a" />
    <path
       id="path76"
       transform="translate(-166.438 -10.005)"
       d="M1626.313,2059.1h-8.488v-2.395h5.145c-.055-.865-.43-1.416-1.464-2.358-2.525-2.293-3.438-3.211-3.453-6.9h-.792v-2.382h3.828c.095,3.555-.081,5.178,1.515,6.376.553-.245.794-1.233.794-2.688v-1.305h-.924v-2.382h3.987v3.8a5.2,5.2,0,0,1-2,4.319c1.48,1.493,1.923,3.482,1.854,5.913"
       class="a" />
    <path
       id="path78"
       transform="translate(-193.519 -2.064)"
       d="M1661.613,2037.131a17.909,17.909,0,0,1,.335,2.944c0,5.605-3.628,4.578-3.438,8.706h1.707v2.382h-4.609a7.311,7.311,0,0,1-.093-.818c-.4-6.694,3.288-5.875,3.288-9.77a2.751,2.751,0,0,0-.174-1.061h-4.338v-5.3h3.144v2.917Z"
       class="a" />
    <path
       id="path80"
       transform="translate(-228.191 -10.005)"
       d="M1706.888,2059.821v2.393h-4.111v-14.76H1701.7v-2.382h4.271v14.749Z"
       class="a" />
    <path
       id="path82"
       transform="translate(-243.063 -10.005)"
       d="M1726.726,2045.072V2059.1h-3.208v-11.648h-1.478v-2.384Z"
       class="a" />
    <path
       id="path84"
       transform="translate(-259.796 -10.005)"
       d="M1752.564,2056.747c1.182,0,2.725-.245,2.725-4.19v-5.116h-.8v-2.369h3.894v7.536c0,5.3-2.139,6.5-6.464,6.5h-6.256v-11.65h-.741v-2.382h3.844l.024,11.688c1.209,0,1.678-.393,1.678-2.153v-7.167h-.871v-2.369h3.974v7.207c0,2.5-.106,3.747-1.021,4.4Z"
       class="a" />
    <path
       id="path86"
       transform="translate(-299.6 -10.005)"
       d="M1809.53,2056.709v2.392h-4.161c.068-2.051.027-4.3-1.237-5.665-.242-.267-.725-.67-1.142-1.135-.4.415-.5.964-.5,2.368v2.041h1.063v2.392h-4.179v-4.161c0-2.236.673-3.592,2.148-4.433a7.094,7.094,0,0,1-1.074-3.054h-1.1v-2.382h4c.106,2.931.122,4.118,2.243,6.19.631-.388.631-1.146.631-2.452v-1.356h-1.061v-2.382h4.137v3.628c0,2.331-.741,3.308-2.123,4.223a6.07,6.07,0,0,1,1.184,3.787Z"
       class="a" />
    <path
       id="path88"
       transform="translate(-329.092 -10.005)"
       d="M1842.969,2045.072c2.472,0,3.305,1.306,3.305,4.885v9.147h-3.2v-9.1c0-2.086-.4-2.549-1.636-2.549h-1.762v-2.384Z"
       class="a" />
  </g>
</svg>
