<svg xmlns="http://www.w3.org/2000/svg" width="68.329" height="24.745" viewBox="0 0 68.329 24.745"><defs><style>.a{fill:#5e2861;}.b{fill:#fbc32f;}.c{fill:#a27045;}</style></defs><path class="a" d="M223.295,2069.522a.38.38,0,1,0,.76,0v-2.278h1.932l1.893,2.461a.44.44,0,0,0,.355.2.4.4,0,0,0,.385-.374.414.414,0,0,0-.126-.279l-1.671-2.152a1.956,1.956,0,0,0,1.8-1.951v-.019a1.858,1.858,0,0,0-.519-1.326,2.653,2.653,0,0,0-1.912-.673H223.67a.383.383,0,0,0-.375.384Zm.76-2.96v-2.729h2.076c1.086,0,1.72.5,1.72,1.326v.019c0,.865-.72,1.384-1.73,1.384Zm5.872,2.96a.38.38,0,1,0,.759,0v-6.054a.38.38,0,1,0-.759,0Zm4.651.432c1.336,0,2.3-.75,2.3-1.9v-.019c0-1.029-.692-1.576-2.192-1.9-1.48-.317-1.826-.673-1.826-1.307v-.02c0-.6.557-1.086,1.432-1.086a2.816,2.816,0,0,1,1.739.586.356.356,0,0,0,.221.067.364.364,0,0,0,.365-.365.392.392,0,0,0-.163-.308,3.433,3.433,0,0,0-2.143-.663,1.986,1.986,0,0,0-2.21,1.835v.019c0,1.105.712,1.6,2.258,1.942,1.413.3,1.75.653,1.75,1.278v.019c0,.663-.6,1.143-1.5,1.143a3.058,3.058,0,0,1-2.124-.8.341.341,0,0,0-.231-.086.367.367,0,0,0-.365.375.342.342,0,0,0,.144.288,3.928,3.928,0,0,0,2.547.9m3.46-.432a.38.38,0,1,0,.759,0v-2.691h3.883v2.691a.38.38,0,1,0,.759,0v-6.054a.38.38,0,1,0-.759,0v2.652H238.8v-2.652a.38.38,0,1,0-.759,0Zm10.042.451a3.408,3.408,0,0,0,3.441-3.479v-.019a3.431,3.431,0,1,0-6.862.019v.02a3.376,3.376,0,0,0,3.421,3.459m.019-.7a2.674,2.674,0,0,1-2.652-2.777v-.019a2.643,2.643,0,0,1,2.633-2.758,2.674,2.674,0,0,1,2.652,2.777v.02a2.642,2.642,0,0,1-2.633,2.757m4.642.26a.37.37,0,1,0,.74,0v-5.209l4.171,5.333a.52.52,0,0,0,.394.231h.038a.341.341,0,0,0,.347-.355v-6.073a.37.37,0,1,0-.74,0v5.074l-4.085-5.208a.463.463,0,0,0-.384-.222h-.106a.382.382,0,0,0-.375.375Z" transform="translate(-223.159 -2063.016)"/><path class="a" d="M461.607,2111.993a1.03,1.03,0,0,0-1.029,1.028v6.208a1.03,1.03,0,0,0,1.033,1.027,1.033,1.033,0,1,1,0-2.066h1.033v-4.131h-1.033a1.033,1.033,0,0,1,0-2.066" transform="translate(-400.512 -2099.623)"/><path class="b" d="M467.755,2111.993h-3.1a1.03,1.03,0,0,1,1.033,1.028v1.038h2.066a2.066,2.066,0,0,1,0,4.132h-2.066v1.038a1.03,1.03,0,0,1-1.033,1.028h3.1a4.132,4.132,0,0,0,0-8.263" transform="translate(-403.557 -2099.623)"/><path class="c" d="M462.643,2118.19H461.61a1.033,1.033,0,1,0,1.033,1.038Zm-1.033-6.2h0a1.033,1.033,0,0,0,0,2.066h1.033v-1.038a1.03,1.03,0,0,0-1.033-1.028" transform="translate(-400.512 -2099.623)"/><path class="a" d="M447.8,2112.991a1,1,0,1,1-1-1,1,1,0,0,1,1,1" transform="translate(-389.474 -2099.624)"/><path class="b" d="M423.12,2111.993a1,1,0,0,0-1,1v6.98a3.989,3.989,0,0,0,3.87,3.987,1,1,0,0,1,.118-1.987l.084,0c-.027,0-.056,0-.084,0a2,2,0,0,1-1.995-1.994v-6.98a1,1,0,0,0-1-1" transform="translate(-371.77 -2099.623)"/><path class="a" d="M440.556,2121.526a1,1,0,0,0-1,1v4.578a1.994,1.994,0,0,1-1.911,1.992,1,1,0,0,1-.084,1.991h-.118a.991.991,0,0,0,.118.007,3.988,3.988,0,0,0,3.989-3.989v-4.578a1,1,0,0,0-1-1" transform="translate(-383.223 -2106.748)"/><path class="c" d="M435.047,2151.488c-.028,0-.056,0-.084,0a1,1,0,0,0-.119,1.988h.119a1,1,0,0,0,.084-1.991" transform="translate(-380.621 -2129.143)"/><path class="a" d="M462.632,2149.293h.008v-1.409a1.031,1.031,0,0,0-2.063,0v1.409h.01a.832.832,0,0,0-.01.1,1.033,1.033,0,1,0,2.066,0c0-.033-.007-.065-.01-.1" transform="translate(-400.511 -2125.678)"/><path class="b" d="M330.766,2110.321a1.063,1.063,0,0,0-1.066,1.061v6.407a1.063,1.063,0,0,0,1.066,1.061,1.066,1.066,0,0,1,0-2.133h1.066v-4.264h-1.066a1.066,1.066,0,0,1,0-2.132" transform="translate(-302.69 -2098.373)"/><path class="a" d="M271.618,2152.182a1.031,1.031,0,1,1-1.031-1.031,1.032,1.032,0,0,1,1.031,1.031" transform="translate(-257.736 -2128.891)"/><path class="a" d="M271.618,2118.487h-2.062v6.783a1.031,1.031,0,0,0,2.062,0Z" transform="translate(-257.736 -2104.477)"/><path class="b" d="M262.907,2110.321h-7.838a1.031,1.031,0,1,0,0,2.062h2.887v-1.031a1.031,1.031,0,1,1,2.063,0v1.031h2.887a1.031,1.031,0,1,0,0-2.062" transform="translate(-246.137 -2098.373)"/><path class="c" d="M270.585,2110.321a1.031,1.031,0,0,0-1.031,1.031v1.031h2.063v-1.031a1.031,1.031,0,0,0-1.031-1.031" transform="translate(-257.735 -2098.373)"/><path class="a" d="M383.757,2152.182a1.031,1.031,0,1,1-1.031-1.031,1.032,1.032,0,0,1,1.031,1.031" transform="translate(-341.552 -2128.891)"/><path class="a" d="M383.757,2118.487H381.7v6.783a1.031,1.031,0,0,0,2.062,0Z" transform="translate(-341.552 -2104.477)"/><path class="b" d="M375.046,2110.321h-7.838a1.031,1.031,0,1,0,0,2.062H370.1v-1.031a1.031,1.031,0,0,1,2.063,0v1.031h2.887a1.031,1.031,0,1,0,0-2.062" transform="translate(-329.954 -2098.373)"/><path class="c" d="M382.724,2110.321a1.031,1.031,0,0,0-1.031,1.031v1.031h2.063v-1.031a1.031,1.031,0,0,0-1.031-1.031" transform="translate(-341.551 -2098.373)"/><path class="a" d="M336.968,2116.717h-1.981v1.072a1.063,1.063,0,0,1-1.066,1.061h2.669l-.328-.441a1.067,1.067,0,0,1,.705-1.691m.151-6.4h-3.2a1.063,1.063,0,0,1,1.066,1.061v1.071h2.132a2.132,2.132,0,0,1,.123,4.261,1.061,1.061,0,0,1,.733.423l.968,1.3a4.265,4.265,0,0,0-1.824-8.119" transform="translate(-305.845 -2098.373)"/><path class="c" d="M331.832,2116.717h-1.066a1.066,1.066,0,1,0,1.066,1.072Zm-1.066-6.4h0a1.066,1.066,0,0,0,0,2.132h1.066v-1.071a1.063,1.063,0,0,0-1.066-1.061" transform="translate(-302.69 -2098.373)"/><path class="b" d="M346.842,2137.337a4.247,4.247,0,0,1-1.824.408h-.529l2.85,3.839a1.066,1.066,0,0,0,1.712-1.271Zm-1.824-1.734a1.141,1.141,0,0,0-.15.01h.151c.041,0,.081,0,.122,0a.974.974,0,0,0-.123-.007" transform="translate(-313.744 -2117.27)"/><path class="c" d="M343.55,2135.632c-.04,0-.081,0-.122,0h-.151a1.054,1.054,0,0,0-.485.2,1.065,1.065,0,0,0-.22,1.491l.327.441h.529a4.246,4.246,0,0,0,1.824-.409l-.968-1.3a1.062,1.062,0,0,0-.733-.424" transform="translate(-312.154 -2117.292)"/><path class="a" d="M293.08,2152.169a1.03,1.03,0,1,1-1.031-1.031,1.031,1.031,0,0,1,1.031,1.031" transform="translate(-273.778 -2128.881)"/><path class="b" d="M304.165,2110.321a1.056,1.056,0,0,0-.294.042,1.031,1.031,0,0,0-.695,1.281l1.479,4.988h1.367a1.03,1.03,0,0,1,0,2.061h-.755l.969,3.265a1.031,1.031,0,0,0,.988.738,1.05,1.05,0,0,0,.293-.043,1.031,1.031,0,0,0,.695-1.281l-3.06-10.314a1.031,1.031,0,0,0-.987-.738" transform="translate(-282.833 -2098.373)"/><path class="a" d="M299.127,2135.309h-2.36a1.03,1.03,0,1,0,0,2.061h2.972Z" transform="translate(-277.304 -2117.05)"/><path class="c" d="M310.529,2135.309h-1.366l.611,2.061h.755a1.03,1.03,0,1,0,0-2.061" transform="translate(-287.34 -2117.05)"/><path class="a" d="M227.442,2110.321h-1.076a3.609,3.609,0,0,0,0,7.219h.538a1.031,1.031,0,0,1-.013-2.062h-.525a1.547,1.547,0,0,1,0-3.094h1.076a1.031,1.031,0,1,0,0-2.062" transform="translate(-222.757 -2098.373)"/><path class="a" d="M227.442,2130.736H226.9a1.031,1.031,0,0,1,0,2.063h.538a1.547,1.547,0,0,1,0,3.095v0h-1.076a1.548,1.548,0,0,1-1.547-1.547,1.031,1.031,0,0,0-2.062,0,3.609,3.609,0,0,0,3.609,3.609h1.076a3.609,3.609,0,1,0,0-7.218" transform="translate(-222.757 -2113.632)"/><path class="c" d="M236.125,2130.737h-.014a1.039,1.039,0,1,0,.014,0" transform="translate(-231.978 -2113.633)"/><path class="a" d="M332.016,2148.724h.007v-1.6a1.031,1.031,0,0,0-2.063,0v1.6h.01a.885.885,0,0,0-.01.1,1.033,1.033,0,0,0,2.066,0c0-.033-.007-.065-.01-.1" transform="translate(-302.884 -2125.11)"/></svg>